<svg width="25" height="24" viewBox="0 0 25 24" fill="none" xmlns="http://www.w3.org/2000/svg">
    <path
        d="M14.3213 6C14.3213 7.10457 13.4259 8 12.3213 8C11.2167 8 10.3213 7.10457 10.3213 6C10.3213 4.89543 11.2167 4 12.3213 4C13.4259 4 14.3213 4.89543 14.3213 6Z"
        fill="#252253" />
    <path
        d="M14.3213 12C14.3213 13.1046 13.4259 14 12.3213 14C11.2167 14 10.3213 13.1046 10.3213 12C10.3213 10.8954 11.2167 10 12.3213 10C13.4259 10 14.3213 10.8954 14.3213 12Z"
        fill="#252253" />
    <path
        d="M14.3213 18C14.3213 19.1046 13.4259 20 12.3213 20C11.2167 20 10.3213 19.1046 10.3213 18C10.3213 16.8954 11.2167 16 12.3213 16C13.4259 16 14.3213 16.8954 14.3213 18Z"
        fill="#252253" />
</svg>