<svg width="24" height="24" viewBox="0 0 24 24" fill="none" xmlns="http://www.w3.org/2000/svg">
    <path
        d="M9.6223 18.8004L9.1296 17.9302L9.6223 18.8004C9.86406 18.6635 10.0555 18.4709 10.2068 18.3188C10.2205 18.3049 10.2339 18.2915 10.247 18.2784L17.7744 10.751C17.7872 10.7382 17.8 10.7253 17.8128 10.7125C18.1128 10.4127 18.4042 10.1214 18.6123 9.84868C18.8468 9.54129 19.0673 9.14333 19.0673 8.62967C19.0673 8.116 18.8468 7.71804 18.6123 7.41065C18.4042 7.13798 18.1128 6.84661 17.8128 6.54681C17.8 6.534 17.7872 6.52118 17.7744 6.50834L17.4917 6.22566C17.4788 6.21282 17.466 6.19998 17.4532 6.18717C17.1534 5.88725 16.8621 5.59578 16.5894 5.38775C16.282 5.15321 15.884 4.93277 15.3704 4.93277C14.8567 4.93277 14.4587 5.15321 14.1514 5.38775C13.8787 5.59579 13.5873 5.88727 13.2875 6.1872C13.2747 6.20001 13.2619 6.21283 13.2491 6.22566L5.72164 13.7531C5.70857 13.7661 5.69509 13.7795 5.68128 13.7933C5.5291 13.9445 5.33649 14.136 5.1996 14.3777L6.0698 14.8704L5.1996 14.3777C5.06272 14.6195 4.99765 14.8832 4.94624 15.0915C4.94158 15.1104 4.93702 15.1288 4.93254 15.1468L4.23197 17.949C4.22917 17.9603 4.22625 17.9719 4.22323 17.9839C4.18641 18.1304 4.1354 18.3333 4.11783 18.5129C4.09762 18.7196 4.09093 19.1715 4.45971 19.5403C4.82849 19.9091 5.28045 19.9024 5.48714 19.8822C5.66675 19.8646 5.86967 19.8136 6.01615 19.7768C6.02816 19.7738 6.03978 19.7709 6.05099 19.7681L8.85326 19.0675C8.8712 19.063 8.88965 19.0585 8.90856 19.0538C9.11686 19.0024 9.38053 18.9373 9.6223 18.8004Z"
        stroke="#252253" stroke-width="2" />
    <path d="M12.7778 7.07407L15.8889 5L19.0001 8.11111L16.926 11.2222L12.7778 7.07407Z" fill="#252253" />
</svg>