<svg width="25" height="24" viewBox="0 0 25 24" fill="none" xmlns="http://www.w3.org/2000/svg">
    <path
        d="M5.5 11.784C5.5 10.4262 5.5 9.74733 5.77446 9.15059C6.04892 8.55385 6.56437 8.11204 7.59525 7.22842L8.59525 6.37128C10.4586 4.77415 11.3902 3.97559 12.5 3.97559C13.6098 3.97559 14.5414 4.77415 16.4047 6.37128L17.4047 7.22842C18.4356 8.11204 18.9511 8.55385 19.2255 9.15059C19.5 9.74733 19.5 10.4262 19.5 11.784V16.0244C19.5 17.91 19.5 18.8528 18.9142 19.4386C18.3284 20.0244 17.3856 20.0244 15.5 20.0244H9.5C7.61438 20.0244 6.67157 20.0244 6.08579 19.4386C5.5 18.8528 5.5 17.91 5.5 16.0244V11.784Z"
        stroke="#252253" stroke-width="2" />
    <path
        d="M15.5 20.0244V15.0244C15.5 14.4721 15.0523 14.0244 14.5 14.0244H11.5C10.9477 14.0244 10.5 14.4721 10.5 15.0244V20.0244"
        stroke="#252253" stroke-width="2" stroke-linecap="round" stroke-linejoin="round" />
</svg>