<svg width="25" height="24" viewBox="0 0 25 24" fill="none" xmlns="http://www.w3.org/2000/svg">
    <path
        d="M16.8281 19C16.4203 17.914 15.5217 16.9544 14.2716 16.27C13.0215 15.5856 11.4898 15.2146 9.91407 15.2146C8.33836 15.2146 6.80667 15.5856 5.55657 16.27C4.30648 16.9544 3.40783 17.914 3 19M22 16.004C21.7621 15.3706 21.2379 14.8108 20.5087 14.4115C19.7794 14.0123 18.886 13.7959 17.9668 13.7959C17.0476 13.7959 16.1541 14.0123 15.4249 14.4115C14.6957 14.8108 14.1715 15.3706 13.9336 16.004M13.493 8.40486C13.493 10.2853 11.8907 11.8097 9.91404 11.8097C7.93742 11.8097 6.33505 10.2853 6.33505 8.40486C6.33505 6.52441 7.93742 5 9.91404 5C11.8907 5 13.493 6.52441 13.493 8.40486ZM20.0546 9.82355C20.0546 10.9205 19.1199 11.8097 17.9668 11.8097C16.8138 11.8097 15.8791 10.9205 15.8791 9.82355C15.8791 8.72662 16.8138 7.83738 17.9668 7.83738C19.1199 7.83738 20.0546 8.72662 20.0546 9.82355Z"
        stroke="#252253" stroke-width="2" stroke-linecap="round" />
</svg>